<svg xmlns="http://www.w3.org/2000/svg" version="1.1" xmlns:xlink="http://www.w3.org/1999/xlink" xmlns:svgjs="http://svgjs.dev/svgjs" width="1440" height="560" preserveAspectRatio="none" viewBox="0 0 1440 560"><g mask="url(&quot;#SvgjsMask3394&quot;)" fill="none"><rect width="1440" height="560" x="0" y="0" fill="url(&quot;#SvgjsLinearGradient3395&quot;)"></rect><g mask="url(&quot;#SvgjsMask3396&quot;)"><path d="M262.5 325.5L283.5 304.5L304.5 304.5L325.5 283.5L346.5 283.5M346.5 346.5L367.5 325.5L388.5 325.5M199.5 325.5L220.5 304.5L241.5 304.5L262.5 304.5L283.5 283.5L304.5 283.5M325.5 346.5L346.5 325.5L367.5 304.5L388.5 304.5L409.5 304.5L430.5 304.5M178.5 325.5L199.5 304.5L220.5 283.5M-10.5 283.5L10.5 304.5L31.5 304.5L52.5 304.5L73.5 304.5L94.5 304.5L115.5 325.5L136.5 325.5L157.5 325.5L178.5 325.5L199.5 325.5L220.5 325.5L241.5 325.5L262.5 325.5L283.5 325.5L304.5 346.5L325.5 346.5L346.5 346.5L367.5 346.5L388.5 346.5L409.5 346.5L430.5 346.5L451.5 346.5" stroke="rgba(224, 224, 224, 0.22)" stroke-width="3.5"></path><path d="M446.25 346.5 a5.25 5.25 0 1 0 10.5 0 a5.25 5.25 0 1 0 -10.5 0zM341.25 283.5 a5.25 5.25 0 1 0 10.5 0 a5.25 5.25 0 1 0 -10.5 0zM383.25 325.5 a5.25 5.25 0 1 0 10.5 0 a5.25 5.25 0 1 0 -10.5 0zM299.25 283.5 a5.25 5.25 0 1 0 10.5 0 a5.25 5.25 0 1 0 -10.5 0zM425.25 304.5 a5.25 5.25 0 1 0 10.5 0 a5.25 5.25 0 1 0 -10.5 0zM215.25 283.5 a5.25 5.25 0 1 0 10.5 0 a5.25 5.25 0 1 0 -10.5 0z" fill="rgba(224, 224, 224, 0.22)"></path><path d="M640.5 241.5L661.5 262.5L682.5 283.5M682.5 241.5L703.5 262.5M955.5 262.5L976.5 241.5M94.5 262.5L115.5 262.5L136.5 262.5M262.5 241.5L283.5 262.5L304.5 262.5L325.5 262.5L346.5 262.5L367.5 262.5L388.5 262.5L409.5 262.5L430.5 283.5L451.5 283.5L472.5 283.5L493.5 283.5L514.5 283.5L535.5 283.5L556.5 283.5L577.5 283.5L598.5 283.5L619.5 283.5L640.5 304.5L661.5 304.5L682.5 304.5L703.5 304.5L724.5 304.5M472.5 262.5L493.5 241.5M808.5 241.5L829.5 220.5L850.5 220.5L871.5 220.5L892.5 199.5L913.5 199.5L934.5 199.5L955.5 199.5L976.5 199.5M241.5 241.5L262.5 262.5M31.5 262.5L52.5 283.5L73.5 283.5L94.5 283.5L115.5 283.5L136.5 283.5L157.5 283.5L178.5 283.5L199.5 283.5L220.5 262.5L241.5 262.5L262.5 283.5M157.5 241.5L178.5 262.5L199.5 262.5M10.5 262.5L31.5 283.5M220.5 241.5L241.5 220.5L262.5 220.5L283.5 220.5M-10.5 262.5L10.5 262.5L31.5 262.5L52.5 262.5L73.5 262.5L94.5 262.5L115.5 241.5L136.5 241.5L157.5 241.5L178.5 241.5L199.5 241.5L220.5 241.5L241.5 241.5L262.5 241.5L283.5 241.5L304.5 241.5L325.5 241.5L346.5 241.5L367.5 241.5L388.5 241.5L409.5 241.5L430.5 262.5L451.5 262.5L472.5 262.5L493.5 262.5L514.5 262.5L535.5 262.5L556.5 262.5L577.5 262.5L598.5 262.5L619.5 241.5L640.5 241.5L661.5 241.5L682.5 241.5L703.5 241.5L724.5 241.5L745.5 241.5L766.5 241.5L787.5 241.5L808.5 241.5L829.5 241.5L850.5 241.5L871.5 262.5L892.5 262.5L913.5 262.5L934.5 262.5L955.5 262.5L976.5 262.5" stroke="rgba(5, 161, 237, 0.44)" stroke-width="3.5"></path><path d="M971.25 262.5 a5.25 5.25 0 1 0 10.5 0 a5.25 5.25 0 1 0 -10.5 0zM677.25 283.5 a5.25 5.25 0 1 0 10.5 0 a5.25 5.25 0 1 0 -10.5 0zM698.25 262.5 a5.25 5.25 0 1 0 10.5 0 a5.25 5.25 0 1 0 -10.5 0zM971.25 241.5 a5.25 5.25 0 1 0 10.5 0 a5.25 5.25 0 1 0 -10.5 0zM131.25 262.5 a5.25 5.25 0 1 0 10.5 0 a5.25 5.25 0 1 0 -10.5 0zM719.25 304.5 a5.25 5.25 0 1 0 10.5 0 a5.25 5.25 0 1 0 -10.5 0zM488.25 241.5 a5.25 5.25 0 1 0 10.5 0 a5.25 5.25 0 1 0 -10.5 0zM971.25 199.5 a5.25 5.25 0 1 0 10.5 0 a5.25 5.25 0 1 0 -10.5 0zM257.25 262.5 a5.25 5.25 0 1 0 10.5 0 a5.25 5.25 0 1 0 -10.5 0zM257.25 283.5 a5.25 5.25 0 1 0 10.5 0 a5.25 5.25 0 1 0 -10.5 0zM194.25 262.5 a5.25 5.25 0 1 0 10.5 0 a5.25 5.25 0 1 0 -10.5 0zM26.25 283.5 a5.25 5.25 0 1 0 10.5 0 a5.25 5.25 0 1 0 -10.5 0zM278.25 220.5 a5.25 5.25 0 1 0 10.5 0 a5.25 5.25 0 1 0 -10.5 0z" fill="rgba(5, 161, 237, 0.44)"></path><path d="M-10.5 304.5L10.5 325.5L31.5 325.5L52.5 325.5L73.5 325.5L94.5 325.5L115.5 346.5L136.5 346.5L157.5 346.5L178.5 346.5L199.5 346.5L220.5 346.5L241.5 346.5L262.5 346.5L283.5 346.5L304.5 367.5L325.5 367.5L346.5 367.5L367.5 367.5L388.5 367.5L409.5 367.5" stroke="rgba(224, 224, 224, 0.22)" stroke-width="3.5"></path><path d="M404.25 367.5 a5.25 5.25 0 1 0 10.5 0 a5.25 5.25 0 1 0 -10.5 0z" fill="rgba(224, 224, 224, 0.22)"></path><path d="M157.5 220.5L178.5 199.5L199.5 199.5M283.5 199.5L304.5 199.5L325.5 199.5L346.5 199.5L367.5 199.5M493.5 220.5L514.5 220.5L535.5 220.5L556.5 220.5M430.5 220.5L451.5 241.5L472.5 241.5M577.5 241.5L598.5 220.5M199.5 220.5L220.5 220.5M262.5 199.5L283.5 178.5M-10.5 241.5L10.5 241.5L31.5 241.5L52.5 241.5L73.5 241.5L94.5 241.5L115.5 220.5L136.5 220.5L157.5 220.5L178.5 220.5L199.5 220.5L220.5 199.5L241.5 199.5L262.5 199.5L283.5 199.5L304.5 220.5L325.5 220.5L346.5 220.5L367.5 220.5L388.5 220.5L409.5 220.5L430.5 220.5L451.5 220.5L472.5 220.5L493.5 220.5L514.5 241.5L535.5 241.5L556.5 241.5L577.5 241.5L598.5 241.5" stroke="rgba(224, 224, 224, 0.22)" stroke-width="3.5"></path><path d="M593.25 241.5 a5.25 5.25 0 1 0 10.5 0 a5.25 5.25 0 1 0 -10.5 0zM194.25 199.5 a5.25 5.25 0 1 0 10.5 0 a5.25 5.25 0 1 0 -10.5 0zM362.25 199.5 a5.25 5.25 0 1 0 10.5 0 a5.25 5.25 0 1 0 -10.5 0zM551.25 220.5 a5.25 5.25 0 1 0 10.5 0 a5.25 5.25 0 1 0 -10.5 0zM467.25 241.5 a5.25 5.25 0 1 0 10.5 0 a5.25 5.25 0 1 0 -10.5 0zM593.25 220.5 a5.25 5.25 0 1 0 10.5 0 a5.25 5.25 0 1 0 -10.5 0zM215.25 220.5 a5.25 5.25 0 1 0 10.5 0 a5.25 5.25 0 1 0 -10.5 0zM278.25 178.5 a5.25 5.25 0 1 0 10.5 0 a5.25 5.25 0 1 0 -10.5 0z" fill="rgba(224, 224, 224, 0.22)"></path><path d="M262.5 367.5L283.5 388.5M346.5 388.5L367.5 409.5L388.5 409.5M535.5 388.5L556.5 367.5L577.5 367.5L598.5 367.5L619.5 367.5L640.5 367.5L661.5 367.5M493.5 388.5L514.5 367.5L535.5 367.5L556.5 346.5L577.5 346.5M430.5 388.5L451.5 367.5L472.5 367.5L493.5 367.5L514.5 346.5L535.5 346.5L556.5 325.5L577.5 325.5L598.5 325.5M325.5 388.5L346.5 409.5M-10.5 325.5L10.5 346.5L31.5 346.5L52.5 346.5L73.5 346.5L94.5 346.5L115.5 367.5L136.5 367.5L157.5 367.5L178.5 367.5L199.5 367.5L220.5 367.5L241.5 367.5L262.5 367.5L283.5 367.5L304.5 388.5L325.5 388.5L346.5 388.5L367.5 388.5L388.5 388.5L409.5 388.5L430.5 388.5L451.5 388.5L472.5 388.5L493.5 388.5L514.5 388.5L535.5 388.5L556.5 388.5L577.5 388.5L598.5 388.5L619.5 388.5L640.5 388.5" stroke="rgba(5, 161, 237, 0.44)" stroke-width="3.5"></path><path d="M635.25 388.5 a5.25 5.25 0 1 0 10.5 0 a5.25 5.25 0 1 0 -10.5 0zM278.25 388.5 a5.25 5.25 0 1 0 10.5 0 a5.25 5.25 0 1 0 -10.5 0zM383.25 409.5 a5.25 5.25 0 1 0 10.5 0 a5.25 5.25 0 1 0 -10.5 0zM656.25 367.5 a5.25 5.25 0 1 0 10.5 0 a5.25 5.25 0 1 0 -10.5 0zM572.25 346.5 a5.25 5.25 0 1 0 10.5 0 a5.25 5.25 0 1 0 -10.5 0zM593.25 325.5 a5.25 5.25 0 1 0 10.5 0 a5.25 5.25 0 1 0 -10.5 0zM341.25 409.5 a5.25 5.25 0 1 0 10.5 0 a5.25 5.25 0 1 0 -10.5 0z" fill="rgba(5, 161, 237, 0.44)"></path><path d="M346.5 178.5L367.5 157.5L388.5 136.5L409.5 136.5L430.5 136.5L451.5 136.5L472.5 136.5L493.5 136.5L514.5 136.5L535.5 136.5L556.5 136.5L577.5 136.5L598.5 136.5L619.5 136.5L640.5 136.5M430.5 199.5L451.5 178.5L472.5 178.5M283.5 157.5L304.5 157.5L325.5 157.5M241.5 178.5L262.5 178.5M514.5 199.5L535.5 178.5L556.5 178.5L577.5 178.5L598.5 178.5L619.5 178.5L640.5 178.5L661.5 199.5M598.5 199.5L619.5 199.5L640.5 199.5M724.5 220.5L745.5 199.5M409.5 199.5L430.5 178.5L451.5 157.5L472.5 157.5L493.5 157.5L514.5 157.5M766.5 220.5L787.5 199.5L808.5 199.5L829.5 178.5L850.5 178.5M-10.5 220.5L10.5 220.5L31.5 220.5L52.5 220.5L73.5 220.5L94.5 220.5L115.5 199.5L136.5 178.5L157.5 178.5L178.5 178.5L199.5 178.5L220.5 178.5L241.5 178.5L262.5 157.5L283.5 157.5L304.5 178.5L325.5 178.5L346.5 178.5L367.5 178.5L388.5 178.5L409.5 199.5L430.5 199.5L451.5 199.5L472.5 199.5L493.5 199.5L514.5 199.5L535.5 199.5L556.5 199.5L577.5 199.5L598.5 199.5L619.5 220.5L640.5 220.5L661.5 220.5L682.5 220.5L703.5 220.5L724.5 220.5L745.5 220.5L766.5 220.5L787.5 220.5" stroke="rgba(5, 161, 237, 0.44)" stroke-width="3.5"></path><path d="M782.25 220.5 a5.25 5.25 0 1 0 10.5 0 a5.25 5.25 0 1 0 -10.5 0zM635.25 136.5 a5.25 5.25 0 1 0 10.5 0 a5.25 5.25 0 1 0 -10.5 0zM467.25 178.5 a5.25 5.25 0 1 0 10.5 0 a5.25 5.25 0 1 0 -10.5 0zM320.25 157.5 a5.25 5.25 0 1 0 10.5 0 a5.25 5.25 0 1 0 -10.5 0zM257.25 178.5 a5.25 5.25 0 1 0 10.5 0 a5.25 5.25 0 1 0 -10.5 0zM656.25 199.5 a5.25 5.25 0 1 0 10.5 0 a5.25 5.25 0 1 0 -10.5 0zM635.25 199.5 a5.25 5.25 0 1 0 10.5 0 a5.25 5.25 0 1 0 -10.5 0zM740.25 199.5 a5.25 5.25 0 1 0 10.5 0 a5.25 5.25 0 1 0 -10.5 0zM509.25 157.5 a5.25 5.25 0 1 0 10.5 0 a5.25 5.25 0 1 0 -10.5 0zM845.25 178.5 a5.25 5.25 0 1 0 10.5 0 a5.25 5.25 0 1 0 -10.5 0z" fill="rgba(5, 161, 237, 0.44)"></path><path d="M73.5 199.5L94.5 178.5L115.5 157.5M262.5 136.5L283.5 136.5L304.5 136.5L325.5 136.5M52.5 199.5L73.5 178.5L94.5 157.5M-10.5 199.5L10.5 199.5L31.5 199.5L52.5 199.5L73.5 199.5L94.5 199.5L115.5 178.5L136.5 157.5L157.5 157.5L178.5 157.5L199.5 157.5L220.5 157.5L241.5 157.5L262.5 136.5L283.5 115.5" stroke="rgba(5, 161, 237, 0.44)" stroke-width="3.5"></path><path d="M278.25 115.5 a5.25 5.25 0 1 0 10.5 0 a5.25 5.25 0 1 0 -10.5 0zM110.25 157.5 a5.25 5.25 0 1 0 10.5 0 a5.25 5.25 0 1 0 -10.5 0zM320.25 136.5 a5.25 5.25 0 1 0 10.5 0 a5.25 5.25 0 1 0 -10.5 0zM89.25 157.5 a5.25 5.25 0 1 0 10.5 0 a5.25 5.25 0 1 0 -10.5 0z" fill="rgba(5, 161, 237, 0.44)"></path><path d="M-10.5 367.5L10.5 367.5L31.5 367.5L52.5 367.5L73.5 367.5L94.5 367.5L115.5 388.5L136.5 388.5L157.5 388.5L178.5 388.5L199.5 388.5L220.5 388.5L241.5 388.5" stroke="rgba(224, 224, 224, 0.22)" stroke-width="3.5"></path><path d="M236.25 388.5 a5.25 5.25 0 1 0 10.5 0 a5.25 5.25 0 1 0 -10.5 0z" fill="rgba(224, 224, 224, 0.22)"></path><path d="M745.5 73.5L766.5 94.5L787.5 94.5L808.5 94.5L829.5 115.5M808.5 73.5L829.5 52.5M829.5 73.5L850.5 94.5L871.5 94.5L892.5 94.5L913.5 94.5M535.5 73.5L556.5 52.5L577.5 52.5M556.5 73.5L577.5 94.5L598.5 94.5L619.5 94.5L640.5 94.5M955.5 73.5L976.5 94.5M871.5 73.5L892.5 52.5L913.5 52.5L934.5 52.5L955.5 52.5L976.5 52.5M430.5 52.5L451.5 73.5M409.5 52.5L430.5 73.5L451.5 94.5M10.5 178.5L31.5 178.5L52.5 178.5M283.5 94.5L304.5 73.5L325.5 73.5L346.5 73.5L367.5 52.5M703.5 73.5L724.5 94.5L745.5 94.5L766.5 115.5L787.5 115.5L808.5 115.5M-10.5 178.5L10.5 178.5L31.5 157.5L52.5 157.5L73.5 136.5L94.5 136.5L115.5 136.5L136.5 136.5L157.5 136.5L178.5 136.5L199.5 136.5L220.5 136.5L241.5 136.5L262.5 115.5L283.5 94.5L304.5 94.5L325.5 94.5L346.5 94.5L367.5 73.5L388.5 52.5L409.5 52.5L430.5 52.5L451.5 52.5L472.5 52.5L493.5 52.5L514.5 73.5L535.5 73.5L556.5 73.5L577.5 73.5L598.5 73.5L619.5 73.5L640.5 73.5L661.5 73.5L682.5 73.5L703.5 73.5L724.5 73.5L745.5 73.5L766.5 73.5L787.5 73.5L808.5 73.5L829.5 73.5L850.5 73.5L871.5 73.5L892.5 73.5L913.5 73.5L934.5 73.5L955.5 73.5L976.5 73.5" stroke="rgba(5, 161, 237, 0.44)" stroke-width="3.5"></path><path d="M971.25 73.5 a5.25 5.25 0 1 0 10.5 0 a5.25 5.25 0 1 0 -10.5 0zM824.25 115.5 a5.25 5.25 0 1 0 10.5 0 a5.25 5.25 0 1 0 -10.5 0zM824.25 52.5 a5.25 5.25 0 1 0 10.5 0 a5.25 5.25 0 1 0 -10.5 0zM908.25 94.5 a5.25 5.25 0 1 0 10.5 0 a5.25 5.25 0 1 0 -10.5 0zM572.25 52.5 a5.25 5.25 0 1 0 10.5 0 a5.25 5.25 0 1 0 -10.5 0zM635.25 94.5 a5.25 5.25 0 1 0 10.5 0 a5.25 5.25 0 1 0 -10.5 0zM971.25 94.5 a5.25 5.25 0 1 0 10.5 0 a5.25 5.25 0 1 0 -10.5 0zM971.25 52.5 a5.25 5.25 0 1 0 10.5 0 a5.25 5.25 0 1 0 -10.5 0zM446.25 73.5 a5.25 5.25 0 1 0 10.5 0 a5.25 5.25 0 1 0 -10.5 0zM446.25 94.5 a5.25 5.25 0 1 0 10.5 0 a5.25 5.25 0 1 0 -10.5 0zM47.25 178.5 a5.25 5.25 0 1 0 10.5 0 a5.25 5.25 0 1 0 -10.5 0zM362.25 52.5 a5.25 5.25 0 1 0 10.5 0 a5.25 5.25 0 1 0 -10.5 0zM803.25 115.5 a5.25 5.25 0 1 0 10.5 0 a5.25 5.25 0 1 0 -10.5 0z" fill="rgba(5, 161, 237, 0.44)"></path><path d="M703.5 409.5L724.5 430.5L745.5 430.5M241.5 409.5L262.5 430.5L283.5 430.5M430.5 409.5L451.5 430.5L472.5 430.5L493.5 430.5M73.5 388.5L94.5 409.5L115.5 430.5L136.5 430.5M409.5 409.5L430.5 430.5M304.5 409.5L325.5 409.5M52.5 388.5L73.5 409.5L94.5 430.5L115.5 451.5M619.5 409.5L640.5 430.5L661.5 430.5L682.5 430.5L703.5 430.5L724.5 451.5L745.5 451.5L766.5 472.5L787.5 493.5L808.5 514.5M577.5 409.5L598.5 430.5L619.5 430.5L640.5 451.5L661.5 451.5L682.5 451.5L703.5 472.5L724.5 472.5L745.5 472.5L766.5 493.5L787.5 514.5M-10.5 388.5L10.5 388.5L31.5 388.5L52.5 388.5L73.5 388.5L94.5 388.5L115.5 409.5L136.5 409.5L157.5 409.5L178.5 409.5L199.5 409.5L220.5 409.5L241.5 409.5L262.5 409.5L283.5 409.5L304.5 409.5L325.5 430.5L346.5 430.5L367.5 430.5L388.5 430.5L409.5 409.5L430.5 409.5L451.5 409.5L472.5 409.5L493.5 409.5L514.5 409.5L535.5 409.5L556.5 409.5L577.5 409.5L598.5 409.5L619.5 409.5L640.5 409.5L661.5 409.5L682.5 409.5L703.5 409.5L724.5 409.5L745.5 409.5L766.5 409.5" stroke="rgba(224, 224, 224, 0.22)" stroke-width="3.5"></path><path d="M761.25 409.5 a5.25 5.25 0 1 0 10.5 0 a5.25 5.25 0 1 0 -10.5 0zM740.25 430.5 a5.25 5.25 0 1 0 10.5 0 a5.25 5.25 0 1 0 -10.5 0zM278.25 430.5 a5.25 5.25 0 1 0 10.5 0 a5.25 5.25 0 1 0 -10.5 0zM488.25 430.5 a5.25 5.25 0 1 0 10.5 0 a5.25 5.25 0 1 0 -10.5 0zM131.25 430.5 a5.25 5.25 0 1 0 10.5 0 a5.25 5.25 0 1 0 -10.5 0zM425.25 430.5 a5.25 5.25 0 1 0 10.5 0 a5.25 5.25 0 1 0 -10.5 0zM320.25 409.5 a5.25 5.25 0 1 0 10.5 0 a5.25 5.25 0 1 0 -10.5 0zM110.25 451.5 a5.25 5.25 0 1 0 10.5 0 a5.25 5.25 0 1 0 -10.5 0zM803.25 514.5 a5.25 5.25 0 1 0 10.5 0 a5.25 5.25 0 1 0 -10.5 0zM782.25 514.5 a5.25 5.25 0 1 0 10.5 0 a5.25 5.25 0 1 0 -10.5 0z" fill="rgba(224, 224, 224, 0.22)"></path><path d="M31.5 136.5L52.5 115.5M115.5 115.5L136.5 94.5L157.5 94.5M73.5 115.5L94.5 94.5L115.5 94.5M-10.5 157.5L10.5 157.5L31.5 136.5L52.5 136.5L73.5 115.5L94.5 115.5L115.5 115.5L136.5 115.5" stroke="rgba(5, 161, 237, 0.44)" stroke-width="3.5"></path><path d="M131.25 115.5 a5.25 5.25 0 1 0 10.5 0 a5.25 5.25 0 1 0 -10.5 0zM47.25 115.5 a5.25 5.25 0 1 0 10.5 0 a5.25 5.25 0 1 0 -10.5 0zM152.25 94.5 a5.25 5.25 0 1 0 10.5 0 a5.25 5.25 0 1 0 -10.5 0zM110.25 94.5 a5.25 5.25 0 1 0 10.5 0 a5.25 5.25 0 1 0 -10.5 0z" fill="rgba(5, 161, 237, 0.44)"></path></g></g><defs><mask id="SvgjsMask3394"><rect width="1440" height="560" fill="#ffffff"></rect></mask><linearGradient x1="50%" y1="0%" x2="50%" y2="100%" gradientUnits="userSpaceOnUse" id="SvgjsLinearGradient3395"><stop stop-color="rgba(16, 27, 106, 1)" offset="0.17"></stop><stop stop-color="rgba(58, 141, 226, 1)" offset="0.9"></stop></linearGradient><mask id="SvgjsMask3396"><rect width="1440" height="560" fill="white"></rect><path d="M448.87 346.5 a2.63 2.63 0 1 0 5.26 0 a2.63 2.63 0 1 0 -5.26 0zM343.87 283.5 a2.63 2.63 0 1 0 5.26 0 a2.63 2.63 0 1 0 -5.26 0zM385.87 325.5 a2.63 2.63 0 1 0 5.26 0 a2.63 2.63 0 1 0 -5.26 0zM301.87 283.5 a2.63 2.63 0 1 0 5.26 0 a2.63 2.63 0 1 0 -5.26 0zM427.87 304.5 a2.63 2.63 0 1 0 5.26 0 a2.63 2.63 0 1 0 -5.26 0zM217.87 283.5 a2.63 2.63 0 1 0 5.26 0 a2.63 2.63 0 1 0 -5.26 0z" fill="black"></path><path d="M973.87 262.5 a2.63 2.63 0 1 0 5.26 0 a2.63 2.63 0 1 0 -5.26 0zM679.87 283.5 a2.63 2.63 0 1 0 5.26 0 a2.63 2.63 0 1 0 -5.26 0zM700.87 262.5 a2.63 2.63 0 1 0 5.26 0 a2.63 2.63 0 1 0 -5.26 0zM973.87 241.5 a2.63 2.63 0 1 0 5.26 0 a2.63 2.63 0 1 0 -5.26 0zM133.87 262.5 a2.63 2.63 0 1 0 5.26 0 a2.63 2.63 0 1 0 -5.26 0zM721.87 304.5 a2.63 2.63 0 1 0 5.26 0 a2.63 2.63 0 1 0 -5.26 0zM490.87 241.5 a2.63 2.63 0 1 0 5.26 0 a2.63 2.63 0 1 0 -5.26 0zM973.87 199.5 a2.63 2.63 0 1 0 5.26 0 a2.63 2.63 0 1 0 -5.26 0zM259.87 262.5 a2.63 2.63 0 1 0 5.26 0 a2.63 2.63 0 1 0 -5.26 0zM259.87 283.5 a2.63 2.63 0 1 0 5.26 0 a2.63 2.63 0 1 0 -5.26 0zM196.87 262.5 a2.63 2.63 0 1 0 5.26 0 a2.63 2.63 0 1 0 -5.26 0zM28.87 283.5 a2.63 2.63 0 1 0 5.26 0 a2.63 2.63 0 1 0 -5.26 0zM280.87 220.5 a2.63 2.63 0 1 0 5.26 0 a2.63 2.63 0 1 0 -5.26 0z" fill="black"></path><path d="M406.87 367.5 a2.63 2.63 0 1 0 5.26 0 a2.63 2.63 0 1 0 -5.26 0z" fill="black"></path><path d="M595.87 241.5 a2.63 2.63 0 1 0 5.26 0 a2.63 2.63 0 1 0 -5.26 0zM196.87 199.5 a2.63 2.63 0 1 0 5.26 0 a2.63 2.63 0 1 0 -5.26 0zM364.87 199.5 a2.63 2.63 0 1 0 5.26 0 a2.63 2.63 0 1 0 -5.26 0zM553.87 220.5 a2.63 2.63 0 1 0 5.26 0 a2.63 2.63 0 1 0 -5.26 0zM469.87 241.5 a2.63 2.63 0 1 0 5.26 0 a2.63 2.63 0 1 0 -5.26 0zM595.87 220.5 a2.63 2.63 0 1 0 5.26 0 a2.63 2.63 0 1 0 -5.26 0zM217.87 220.5 a2.63 2.63 0 1 0 5.26 0 a2.63 2.63 0 1 0 -5.26 0zM280.87 178.5 a2.63 2.63 0 1 0 5.26 0 a2.63 2.63 0 1 0 -5.26 0z" fill="black"></path><path d="M637.87 388.5 a2.63 2.63 0 1 0 5.26 0 a2.63 2.63 0 1 0 -5.26 0zM280.87 388.5 a2.63 2.63 0 1 0 5.26 0 a2.63 2.63 0 1 0 -5.26 0zM385.87 409.5 a2.63 2.63 0 1 0 5.26 0 a2.63 2.63 0 1 0 -5.26 0zM658.87 367.5 a2.63 2.63 0 1 0 5.26 0 a2.63 2.63 0 1 0 -5.26 0zM574.87 346.5 a2.63 2.63 0 1 0 5.26 0 a2.63 2.63 0 1 0 -5.26 0zM595.87 325.5 a2.63 2.63 0 1 0 5.26 0 a2.63 2.63 0 1 0 -5.26 0zM343.87 409.5 a2.63 2.63 0 1 0 5.26 0 a2.63 2.63 0 1 0 -5.26 0z" fill="black"></path><path d="M784.87 220.5 a2.63 2.63 0 1 0 5.26 0 a2.63 2.63 0 1 0 -5.26 0zM637.87 136.5 a2.63 2.63 0 1 0 5.26 0 a2.63 2.63 0 1 0 -5.26 0zM469.87 178.5 a2.63 2.63 0 1 0 5.26 0 a2.63 2.63 0 1 0 -5.26 0zM322.87 157.5 a2.63 2.63 0 1 0 5.26 0 a2.63 2.63 0 1 0 -5.26 0zM259.87 178.5 a2.63 2.63 0 1 0 5.26 0 a2.63 2.63 0 1 0 -5.26 0zM658.87 199.5 a2.63 2.63 0 1 0 5.26 0 a2.63 2.63 0 1 0 -5.26 0zM637.87 199.5 a2.63 2.63 0 1 0 5.26 0 a2.63 2.63 0 1 0 -5.26 0zM742.87 199.5 a2.63 2.63 0 1 0 5.26 0 a2.63 2.63 0 1 0 -5.26 0zM511.87 157.5 a2.63 2.63 0 1 0 5.26 0 a2.63 2.63 0 1 0 -5.26 0zM847.87 178.5 a2.63 2.63 0 1 0 5.26 0 a2.63 2.63 0 1 0 -5.26 0z" fill="black"></path><path d="M280.87 115.5 a2.63 2.63 0 1 0 5.26 0 a2.63 2.63 0 1 0 -5.26 0zM112.87 157.5 a2.63 2.63 0 1 0 5.26 0 a2.63 2.63 0 1 0 -5.26 0zM322.87 136.5 a2.63 2.63 0 1 0 5.26 0 a2.63 2.63 0 1 0 -5.26 0zM91.87 157.5 a2.63 2.63 0 1 0 5.26 0 a2.63 2.63 0 1 0 -5.26 0z" fill="black"></path><path d="M238.87 388.5 a2.63 2.63 0 1 0 5.26 0 a2.63 2.63 0 1 0 -5.26 0z" fill="black"></path><path d="M973.87 73.5 a2.63 2.63 0 1 0 5.26 0 a2.63 2.63 0 1 0 -5.26 0zM826.87 115.5 a2.63 2.63 0 1 0 5.26 0 a2.63 2.63 0 1 0 -5.26 0zM826.87 52.5 a2.63 2.63 0 1 0 5.26 0 a2.63 2.63 0 1 0 -5.26 0zM910.87 94.5 a2.63 2.63 0 1 0 5.26 0 a2.63 2.63 0 1 0 -5.26 0zM574.87 52.5 a2.63 2.63 0 1 0 5.26 0 a2.63 2.63 0 1 0 -5.26 0zM637.87 94.5 a2.63 2.63 0 1 0 5.26 0 a2.63 2.63 0 1 0 -5.26 0zM973.87 94.5 a2.63 2.63 0 1 0 5.26 0 a2.63 2.63 0 1 0 -5.26 0zM973.87 52.5 a2.63 2.63 0 1 0 5.26 0 a2.63 2.63 0 1 0 -5.26 0zM448.87 73.5 a2.63 2.63 0 1 0 5.26 0 a2.63 2.63 0 1 0 -5.26 0zM448.87 94.5 a2.63 2.63 0 1 0 5.26 0 a2.63 2.63 0 1 0 -5.26 0zM49.87 178.5 a2.63 2.63 0 1 0 5.26 0 a2.63 2.63 0 1 0 -5.26 0zM364.87 52.5 a2.63 2.63 0 1 0 5.26 0 a2.63 2.63 0 1 0 -5.26 0zM805.87 115.5 a2.63 2.63 0 1 0 5.26 0 a2.63 2.63 0 1 0 -5.26 0z" fill="black"></path><path d="M763.87 409.5 a2.63 2.63 0 1 0 5.26 0 a2.63 2.63 0 1 0 -5.26 0zM742.87 430.5 a2.63 2.63 0 1 0 5.26 0 a2.63 2.63 0 1 0 -5.26 0zM280.87 430.5 a2.63 2.63 0 1 0 5.26 0 a2.63 2.63 0 1 0 -5.26 0zM490.87 430.5 a2.63 2.63 0 1 0 5.26 0 a2.63 2.63 0 1 0 -5.26 0zM133.87 430.5 a2.63 2.63 0 1 0 5.26 0 a2.63 2.63 0 1 0 -5.26 0zM427.87 430.5 a2.63 2.63 0 1 0 5.26 0 a2.63 2.63 0 1 0 -5.26 0zM322.87 409.5 a2.63 2.63 0 1 0 5.26 0 a2.63 2.63 0 1 0 -5.26 0zM112.87 451.5 a2.63 2.63 0 1 0 5.26 0 a2.63 2.63 0 1 0 -5.26 0zM805.87 514.5 a2.63 2.63 0 1 0 5.26 0 a2.63 2.63 0 1 0 -5.26 0zM784.87 514.5 a2.63 2.63 0 1 0 5.26 0 a2.63 2.63 0 1 0 -5.26 0z" fill="black"></path><path d="M133.87 115.5 a2.63 2.63 0 1 0 5.26 0 a2.63 2.63 0 1 0 -5.26 0zM49.87 115.5 a2.63 2.63 0 1 0 5.26 0 a2.63 2.63 0 1 0 -5.26 0zM154.87 94.5 a2.63 2.63 0 1 0 5.26 0 a2.63 2.63 0 1 0 -5.26 0zM112.87 94.5 a2.63 2.63 0 1 0 5.26 0 a2.63 2.63 0 1 0 -5.26 0z" fill="black"></path></mask></defs></svg>