<svg class="border shadow-md" viewBox="0 0 1126.4 633.6" style="width: 1126.4px; height: 633.6px;" xmlns="http://www.w3.org/2000/svg" preserveAspectRatio="none"><rect class="bg" id="bg" x="0" y="0" width="1126.4" height="633.6" fill="#ffffff"/><path d="M 0 -63.36 L 0 -63.36&#10;                L 106.00 -7.36&#10;                L 225.28000000000003 -63.36 L 225.28000000000003 -63.36&#10;                L 356.28 -31.68&#10;                L 450.56000000000006 -63.36 L 450.56000000000006 -63.36&#10;                L 525.65 -31.68&#10;                L 675.8400000000001 -63.36 L 675.8400000000001 -63.36&#10;                L 756.84 -29.36&#10;                L 901.1200000000001 -63.36 L 901.1200000000001 -63.36&#10;                L 976.21 -31.68&#10;                L 1126.4 -63.36 L 1126.4 -63.36&#10;                L 1281.40 -19.36&#10;                L 1351.68 -63.36  V 633.60 H 0 V -63.36 Z" fill="#5290FA"/><path d="M 0 0 L 0 0.00&#10;                L 75.09 49.00&#10;                L 225.28000000000003 0.00 L 225.28000000000003 0.00&#10;                L 300.37 31.68&#10;                L 450.56000000000006 0.00 L 450.56000000000006 0.00&#10;                L 610.56 62.00&#10;                L 675.8400000000001 0.00 L 675.8400000000001 0.00&#10;                L 750.93 31.68&#10;                L 901.1200000000001 0.00 L 901.1200000000001 0.00&#10;                L 976.21 31.68&#10;                L 1126.4 0.00 L 1126.4 0.00&#10;                L 1206.40 31.68&#10;                L 1351.68 0.00  V 633.60 H 0 V 0.00 Z" fill="#4b86eb"/><path d="M 0 63.36 L -225.28000000000003 63.36&#10;                L -105.28 95.04&#10;                L 0 63.36 L 0 63.36&#10;                L 75.09 95.04&#10;                L 225.28000000000003 63.36 L 225.28000000000003 63.36&#10;                L 300.37 95.04&#10;                L 450.56000000000006 63.36 L 450.5600000000001 63.36&#10;                L 555.56 120.36&#10;                L 675.8400000000001 63.36 L 675.8400000000001 63.36&#10;                L 750.93 99.36&#10;                L 901.1200000000001 63.36 L 901.1200000000001 63.36&#10;                L 976.21 103.36&#10;                L 1126.4 63.36  V 633.60 H 0 V 63.36 Z" fill="#447cdc"/><path d="M 0 126.72 L 0 126.72&#10;                L 75.09 158.40&#10;                L 225.28000000000003 126.72 L 225.28000000000003 126.72&#10;                L 300.37 177.72&#10;                L 450.56000000000006 126.72 L 450.56000000000006 126.72&#10;                L 556.56 188.72&#10;                L 675.8400000000001 126.72 L 675.8400000000001 126.72&#10;                L 750.93 170.72&#10;                L 901.1200000000001 126.72 L 901.1200000000001 126.72&#10;                L 1065.12 158.40&#10;                L 1126.4 126.72 L 1126.4 126.72&#10;                L 1201.49 160.72&#10;                L 1351.68 126.72  V 633.60 H 0 V 126.72 Z" fill="#3d72cd"/><path d="M 0 190.07999999999998 L -225.28000000000003 190.08&#10;                L -150.19 221.76&#10;                L 0 190.08 L 0 190.08&#10;                L 138.00 221.76&#10;                L 225.28000000000003 190.08 L 225.28000000000003 190.08&#10;                L 383.28 221.76&#10;                L 450.56000000000006 190.08 L 450.5600000000001 190.08&#10;                L 525.65 221.76&#10;                L 675.8400000000001 190.08 L 675.8400000000001 190.08&#10;                L 830.84 221.76&#10;                L 901.1200000000001 190.08 L 901.1200000000001 190.08&#10;                L 995.12 221.76&#10;                L 1126.4 190.08  V 633.60 H 0 V 190.08 Z" fill="#3668be"/><path d="M 0 253.44 L 0 253.44&#10;                L 75.09 285.12&#10;                L 225.28000000000003 253.44 L 225.28000000000003 253.44&#10;                L 300.37 314.44&#10;                L 450.56000000000006 253.44 L 450.56000000000006 253.44&#10;                L 590.56 285.12&#10;                L 675.8400000000001 253.44 L 675.8400000000001 253.44&#10;                L 750.93 285.12&#10;                L 901.1200000000001 253.44 L 901.1200000000001 253.44&#10;                L 976.21 287.44&#10;                L 1126.4 253.44 L 1126.4 253.44&#10;                L 1201.49 311.44&#10;                L 1351.68 253.44  V 633.60 H 0 V 253.44 Z" fill="#2f5eaf"/><path d="M 0 316.8 L -225.28000000000003 316.80&#10;                L -58.28 348.48&#10;                L 0 316.80 L 0 316.80&#10;                L 75.09 348.48&#10;                L 225.28000000000003 316.80 L 225.28000000000003 316.80&#10;                L 355.28 348.48&#10;                L 450.56000000000006 316.80 L 450.5600000000001 316.80&#10;                L 525.65 366.80&#10;                L 675.8400000000001 316.80 L 675.8400000000001 316.80&#10;                L 750.93 348.48&#10;                L 901.1200000000001 316.80 L 901.1200000000001 316.80&#10;                L 1043.12 348.48&#10;                L 1126.4 316.80  V 633.60 H 0 V 316.80 Z" fill="#2854a0"/><path d="M 0 380.15999999999997 L 0 380.16&#10;                L 76.00 438.16&#10;                L 225.28000000000003 380.16 L 225.28000000000003 380.16&#10;                L 337.28 442.16&#10;                L 450.56000000000006 380.16 L 450.56000000000006 380.16&#10;                L 592.56 414.16&#10;                L 675.8400000000001 380.16 L 675.8400000000001 380.16&#10;                L 780.84 411.84&#10;                L 901.1200000000001 380.16 L 901.1200000000001 380.16&#10;                L 1068.12 411.84&#10;                L 1126.4 380.16 L 1126.4 380.16&#10;                L 1270.40 422.16&#10;                L 1351.68 380.16  V 633.60 H 0 V 380.16 Z" fill="#214a91"/><path d="M 0 443.52 L -225.28000000000003 443.52&#10;                L -150.19 475.20&#10;                L 0 443.52 L 0 443.52&#10;                L 107.00 475.20&#10;                L 225.28000000000003 443.52 L 225.28000000000003 443.52&#10;                L 345.28 483.52&#10;                L 450.56000000000006 443.52 L 450.5600000000001 443.52&#10;                L 525.65 475.20&#10;                L 675.8400000000001 443.52 L 675.8400000000001 443.52&#10;                L 802.84 475.20&#10;                L 901.1200000000001 443.52 L 901.1200000000001 443.52&#10;                L 976.21 475.20&#10;                L 1126.4 443.52  V 633.60 H 0 V 443.52 Z" fill="#1a4082"/><path d="M 0 506.88 L 0 506.88&#10;                L 75.09 546.88&#10;                L 225.28000000000003 506.88 L 225.28000000000003 506.88&#10;                L 300.37 543.88&#10;                L 450.56000000000006 506.88 L 450.56000000000006 506.88&#10;                L 591.56 565.88&#10;                L 675.8400000000001 506.88 L 675.8400000000001 506.88&#10;                L 750.93 538.56&#10;                L 901.1200000000001 506.88 L 901.1200000000001 506.88&#10;                L 976.21 538.56&#10;                L 1126.4 506.88 L 1126.4 506.88&#10;                L 1201.49 556.88&#10;                L 1351.68 506.88  V 633.60 H 0 V 506.88 Z" fill="#133673"/><path d="M 0 570.24 L -225.28000000000003 570.24&#10;                L -67.28 601.92&#10;                L 0 570.24 L 0 570.24&#10;                L 150.00 601.92&#10;                L 225.28000000000003 570.24 L 225.28000000000003 570.24&#10;                L 324.28 601.92&#10;                L 450.56000000000006 570.24 L 450.5600000000001 570.24&#10;                L 525.65 601.92&#10;                L 675.8400000000001 570.24 L 675.8400000000001 570.24&#10;                L 750.93 601.92&#10;                L 901.1200000000001 570.24 L 901.1200000000001 570.24&#10;                L 1026.12 601.92&#10;                L 1126.4 570.24  V 633.60 H 0 V 570.24 Z" fill="#0c2c64"/></svg>